<svg width="20" height="20" viewBox="0 0 20 20" fill="none" xmlns="http://www.w3.org/2000/svg">
<path d="M18.7279 3.41421C19.509 2.63316 19.509 1.36682 18.7279 0.585782C17.9469 -0.195255 16.6805 -0.195266 15.8995 0.585782L9.65685 6.82842L3.41421 0.585782C2.63317 -0.195255 1.36683 -0.195266 0.585782 0.585782C-0.195266 1.36683 -0.195255 2.63317 0.585782 3.41421L6.82842 9.65685L0.585782 15.8995C-0.195266 16.6805 -0.195255 17.9469 0.585782 18.7279C1.36682 19.509 2.63316 19.509 3.41421 18.7279L9.65685 12.4853L15.8995 18.7279C16.6805 19.509 17.9469 19.509 18.7279 18.7279C19.509 17.9469 19.509 16.6805 18.7279 15.8995L12.4853 9.65685L18.7279 3.41421Z" fill="white"/>
</svg>
