<svg width="18" height="18" viewBox="0 0 18 18" fill="none" xmlns="http://www.w3.org/2000/svg">
<path d="M17.5769 5.11258C17.5769 7.82132 17.5769 10.5301 17.5769 13.2388C17.5701 13.2593 17.5701 13.2867 17.5633 13.3072C17.5359 13.5124 17.5222 13.7108 17.4812 13.916C17.3102 14.7642 16.9408 15.5098 16.3594 16.1528C15.5727 17.0146 14.6014 17.5277 13.4454 17.6918C13.3291 17.7055 13.206 17.7192 13.0829 17.7329C10.3741 17.7329 7.6654 17.7329 4.95665 17.7329C4.93613 17.726 4.90877 17.7192 4.88825 17.7192C4.55307 17.6987 4.2179 17.6371 3.89641 17.5413C3.1987 17.3361 2.57623 16.9941 2.04269 16.5085C1.18082 15.7218 0.667808 14.7574 0.510482 13.6013C0.496801 13.4851 0.483117 13.3619 0.469437 13.2388C0.469437 10.5301 0.469437 7.82132 0.469437 5.11258C0.476277 5.08522 0.47628 5.0647 0.48312 5.03734C0.503641 4.86633 0.517319 4.69532 0.54468 4.52432C0.749888 3.42987 1.27659 2.51328 2.11794 1.78137C2.83617 1.15891 3.66384 0.789532 4.60779 0.666408C4.72408 0.652727 4.84037 0.639047 4.95665 0.625366C7.6654 0.625366 10.3741 0.625366 13.0829 0.625366C13.1034 0.632206 13.1308 0.632206 13.1513 0.639047C13.377 0.673248 13.6096 0.686928 13.8353 0.73481C14.6425 0.905817 15.3607 1.26835 15.9763 1.82241C16.8519 2.60904 17.3717 3.5872 17.5359 4.75689C17.5496 4.87317 17.5633 4.98945 17.5769 5.11258ZM9.02661 13.916C11.6533 13.916 13.7738 11.7955 13.7738 9.1757C13.7806 6.56271 11.667 4.44907 9.08133 4.42171C6.42731 4.38751 4.26579 6.54219 4.27263 9.1757C4.27947 11.7955 6.39995 13.916 9.02661 13.916ZM15.6753 3.47092C15.6753 2.95106 15.2444 2.52012 14.7245 2.52012C14.2047 2.52012 13.7806 2.94422 13.7738 3.46408C13.7738 3.98394 14.1978 4.41487 14.7245 4.42171C15.2444 4.42171 15.6753 3.99078 15.6753 3.47092Z" fill="white"/>
<path d="M9.02666 12.0212C7.4534 12.0212 6.17427 10.7421 6.17427 9.1688C6.17427 7.59554 7.44656 6.31641 9.02666 6.31641C10.5999 6.31641 11.879 7.5887 11.879 9.16196C11.879 10.7421 10.5999 12.0212 9.02666 12.0212Z" fill="white"/>
</svg>
