<svg width="19" height="19" viewBox="0 0 19 19" fill="none" xmlns="http://www.w3.org/2000/svg">
<path fill-rule="evenodd" clip-rule="evenodd" d="M3.48048 2.66272C7.03078 -0.88758 12.787 -0.88757 16.3373 2.66272C19.8876 6.21302 19.8876 11.9692 16.3373 15.5195C13.0039 18.8529 7.72604 19.0565 4.15506 16.1306L1.55196 18.7337C1.19692 19.0888 0.621325 19.0888 0.26628 18.7337C-0.088765 18.3787 -0.0887551 17.8031 0.26628 17.448L2.86938 14.8449C-0.0565425 11.274 0.147131 5.99607 3.48048 2.66272ZM15.0516 3.9484C12.2114 1.10816 7.6064 1.10816 4.76616 3.9484C1.92592 6.78865 1.92592 11.3936 4.76616 14.2338C7.6064 17.0741 12.2114 17.0741 15.0516 14.2338C17.8918 11.3936 17.8918 6.78865 15.0516 3.9484Z" fill="white"/>
<path d="M8.99994 6C8.99994 5.44772 9.44765 5 9.99994 5C10.5522 5 10.9999 5.44772 10.9999 6V12C10.9999 12.5523 10.5522 13 9.99994 13C9.44765 13 8.99994 12.5523 8.99994 12V6Z" fill="white"/>
<path d="M13 8C13.5523 8 14 8.44772 14 9C14 9.55228 13.5523 10 13 10L7 10C6.44772 10 6 9.55228 6 9C6 8.44772 6.44772 8 7 8L13 8Z" fill="white"/>
</svg>
