<svg width="14" height="22" viewBox="0 0 14 22" fill="none" xmlns="http://www.w3.org/2000/svg">
<path d="M6.72933 3.32437C8.02898 3.32437 9.08237 4.37777 9.08237 5.67742C9.08237 6.97023 8.02898 8.02363 6.72933 8.02363C5.43652 8.02363 4.37628 6.97023 4.37628 5.67742C4.38312 4.38461 5.43652 3.32437 6.72933 3.32437ZM6.72933 11.3548C9.86217 11.3548 12.4067 8.81026 12.4067 5.67742C12.4067 2.54458 9.86217 0 6.72933 0C3.59649 0 1.05191 2.54458 1.05191 5.67742C1.05875 8.81026 3.60333 11.3548 6.72933 11.3548ZM9.02766 15.9857C10.1837 15.7189 11.2986 15.2675 12.3247 14.6176C13.1045 14.1251 13.337 13.0991 12.8445 12.3262C12.3589 11.5464 11.326 11.3138 10.553 11.8063C8.22734 13.2701 5.23131 13.2701 2.91246 11.8063C2.13267 11.3138 1.10663 11.5532 0.620972 12.3262C0.128473 13.1059 0.367879 14.132 1.14083 14.6176C2.16687 15.2606 3.28183 15.7189 4.43784 15.9857L1.26395 19.1596C0.614128 19.8094 0.614128 20.8628 1.26395 21.5126C1.59229 21.8341 2.01638 21.9983 2.44048 21.9983C2.86458 21.9983 3.29551 21.8341 3.61701 21.5126L6.73616 18.3935L9.85533 21.5126C10.5052 22.1625 11.5586 22.1625 12.2084 21.5126C12.8582 20.8628 12.8582 19.8094 12.2084 19.1596L9.02766 15.9857Z" fill="white"/>
</svg>
