<svg width="24" height="24" viewBox="0 0 24 24" fill="none" xmlns="http://www.w3.org/2000/svg">
<path d="M23.9879 11.3592C23.9798 11.0961 23.9474 10.8412 23.911 10.5944C23.8988 10.4972 23.8827 10.4001 23.8746 10.303C23.8058 9.71626 23.6682 9.10119 23.4456 8.37281C23.2716 7.81034 23.0653 7.28024 22.8306 6.80275C22.3895 5.90442 21.912 5.15177 21.3698 4.49623C21.1351 4.21297 20.8558 3.88116 20.5564 3.56957C20.2205 3.22157 19.8402 2.88166 19.387 2.52961C18.7233 2.01166 17.9949 1.5544 17.218 1.17403C16.5625 0.85435 15.8827 0.599418 15.2028 0.421371C14.7982 0.316161 14.3854 0.231184 14.0334 0.162392C13.6368 0.0855083 13.2403 0.0369499 12.8518 0.0207638H12.8073C12.1153 -0.00756194 11.5529 -0.00756194 11.1361 0.0248103C10.8366 0.045043 10.4927 0.0693222 10.1609 0.125974C9.77643 0.194765 9.36368 0.283789 8.86191 0.409231C8.174 0.583232 7.49418 0.83007 6.84269 1.14975C6.23571 1.44514 5.70157 1.75268 5.20384 2.10068C4.78705 2.39203 4.37026 2.7198 3.9656 3.0759C3.54881 3.44413 3.1563 3.85283 2.76378 4.32628C2.3308 4.84828 1.93829 5.4067 1.60647 5.9894C1.2261 6.64899 0.93475 7.28024 0.704097 7.91555C0.509863 8.46183 0.348002 9.04049 0.226606 9.62724C0.174001 9.88217 0.141629 10.1411 0.109256 10.392C0.101163 10.4568 0.0930703 10.5256 0.0849772 10.5903C0.0728376 10.6996 0.060698 10.8088 0.052605 10.91C0.0485584 10.9666 0.0445119 11.0233 0.0364188 11.0799C0.0283257 11.0921 0.0242792 11.1042 0.0202327 11.1204L0 11.1811V12.8038L0.0202327 12.8604C0.0242792 12.8685 0.0283257 12.8806 0.0323723 12.8887C0.0323723 13.2246 0.0890238 13.5483 0.137582 13.8356C0.202327 14.216 0.287304 14.6166 0.416793 15.1346C0.590794 15.8184 0.837633 16.4982 1.15731 17.1578C1.43247 17.7284 1.7481 18.2747 2.09611 18.7805C2.47243 19.3308 2.91351 19.8731 3.40718 20.3829C3.75518 20.7431 4.15175 21.0992 4.62114 21.4633C5.27264 21.9732 5.99697 22.4224 6.76985 22.8068C7.36065 23.0981 7.98786 23.3369 8.63935 23.523C8.9388 23.608 9.24633 23.6768 9.54578 23.7415L9.56196 23.7456C9.87759 23.8184 10.2013 23.8629 10.5089 23.9034L10.5857 23.9155C11.0511 23.9803 11.5124 24.0005 11.9535 24.0005C12.1275 24.0005 12.2974 23.9965 12.4674 23.9924C12.7587 23.9843 13.042 23.952 13.3212 23.9196L13.4547 23.9034C13.7501 23.867 14.0536 23.8346 14.3531 23.7699C14.8508 23.6687 15.3323 23.5392 15.7896 23.3895C16.8093 23.0496 17.7845 22.5721 18.6869 21.9611C19.2089 21.609 19.7188 21.2044 20.2044 20.7512C21.0015 20.0106 21.7056 19.1406 22.2924 18.1654C22.8629 17.2185 23.2919 16.219 23.563 15.1912C23.652 14.8594 23.7329 14.4952 23.8179 14.042C23.8867 13.6819 23.9191 13.3177 23.9514 12.9656L23.9595 12.8806C24.0121 12.3708 24.004 11.8731 23.9879 11.3592ZM9.23824 8.75318C9.96257 8.0329 10.9297 7.63634 11.9575 7.63634C11.9656 7.63634 11.9697 7.63634 11.9777 7.63634C13.0096 7.64039 13.9727 8.04504 14.697 8.76937C15.4213 9.49775 15.8179 10.4689 15.8139 11.5048C15.8098 12.5367 15.4092 13.4998 14.6808 14.2201C13.9565 14.9403 12.9853 15.3369 11.9494 15.349C10.9135 15.3369 9.94638 14.9282 9.2261 14.2079C8.50582 13.4836 8.10521 12.5165 8.10926 11.4886C8.10521 10.4487 8.50582 9.47751 9.23824 8.75318ZM11.2008 17.2671C12.7385 17.1336 14.1669 17.4087 15.4497 18.0804C16.4573 18.6065 17.2989 19.3025 17.9545 20.1523C16.2468 21.435 14.1062 22.1229 11.8887 22.0987C9.71169 22.0744 7.63177 21.3743 6.00101 20.1199C6.96004 18.8412 8.91856 17.4654 11.2008 17.2671ZM17.6874 11.8043C17.7886 10.0966 17.2221 8.62369 16.0081 7.42187C14.8346 6.26457 13.301 5.66568 11.6864 5.74256C10.0921 5.81945 8.5827 6.5721 7.54679 7.81034C6.49469 9.06477 6.03338 10.7117 6.27618 12.3303C6.49874 13.7952 7.25544 15.086 8.43703 16.0208C6.8953 16.6358 5.62468 17.5706 4.57663 18.8655C4.16793 18.4365 3.79565 17.9105 3.71472 17.7931C3.20486 17.0607 2.78806 16.2555 2.48053 15.3976C2.3308 14.9848 2.20536 14.5438 2.09206 14.0461C2.0435 13.8356 2.01922 13.6171 1.9909 13.3865C1.97876 13.2934 1.96662 13.2003 1.95448 13.1073C1.88973 12.6257 1.86545 12.1806 1.88569 11.7517C1.90592 11.3187 1.93829 10.9221 1.9909 10.5418C2.07183 9.955 2.20941 9.36421 2.40364 8.7896C2.78806 7.64039 3.35862 6.58829 4.10723 5.65354C4.82752 4.75521 5.69348 3.99041 6.68488 3.37534C7.36065 2.9545 8.12949 2.60245 8.97117 2.33133C9.41224 2.18971 9.89378 2.0764 10.3915 1.99547C10.6464 1.95501 10.9014 1.93477 11.1725 1.91454L11.3141 1.9024C11.5771 1.88217 11.8159 1.86598 12.0546 1.86598C12.4795 1.87003 12.9327 1.90645 13.4426 1.97524C14.0212 2.05617 14.608 2.19375 15.1786 2.37989C16.3237 2.76027 17.3799 3.33083 18.3146 4.07944C18.8407 4.50028 19.3303 4.98181 19.7673 5.50786C20.2934 6.13912 20.7344 6.81894 21.0824 7.53518C21.4426 8.27569 21.7056 9.03239 21.8715 9.78505C21.9484 10.1331 22.0051 10.4891 22.0415 10.8331C22.0941 11.3268 22.1265 11.7436 22.1103 12.1563C22.0941 12.5569 22.0617 12.9778 22.0051 13.4067C21.8958 14.2524 21.6652 15.082 21.2969 15.952C21.0096 16.6358 20.6414 17.2833 20.2084 17.8741L20.2044 17.8781C19.8483 18.3677 19.5771 18.7198 19.4072 18.9424C18.3591 17.6191 17.04 16.6358 15.474 16.0086C16.8417 14.9403 17.5862 13.52 17.6874 11.8043Z" fill="white"/>
</svg>
