<svg width="24" height="25" viewBox="0 0 24 25" fill="none" xmlns="http://www.w3.org/2000/svg">
<path d="M23.9879 12.3555C23.9798 12.0925 23.9474 11.8375 23.911 11.5907C23.8988 11.4936 23.8827 11.3965 23.8746 11.2993C23.8058 10.7126 23.6682 10.0975 23.4456 9.36915C23.2716 8.80668 23.0653 8.27658 22.8306 7.79909C22.3895 6.90076 21.912 6.14811 21.3698 5.49257C21.1351 5.20931 20.8558 4.8775 20.5564 4.56591C20.2205 4.21791 19.8402 3.878 19.387 3.52595C18.7233 3.008 17.9949 2.55074 17.218 2.17036C16.5625 1.85069 15.8827 1.59576 15.2028 1.41771C14.7982 1.3125 14.3854 1.22752 14.0334 1.15873C13.6368 1.08185 13.2403 1.03329 12.8518 1.0171H12.8073C12.1153 0.988776 11.5529 0.988776 11.1361 1.02115C10.8366 1.04138 10.4927 1.06566 10.1609 1.12231C9.77643 1.1911 9.36368 1.28013 8.86191 1.40557C8.174 1.57957 7.49418 1.82641 6.84269 2.14608C6.23571 2.44148 5.70157 2.74902 5.20384 3.09702C4.78705 3.38837 4.37026 3.71614 3.9656 4.07223C3.54881 4.44047 3.1563 4.84917 2.76378 5.32261C2.3308 5.84462 1.93829 6.40304 1.60647 6.98574C1.2261 7.64532 0.93475 8.27658 0.704097 8.91189C0.509863 9.45817 0.348002 10.0368 0.226606 10.6236C0.174001 10.8785 0.141629 11.1375 0.109256 11.3884C0.101163 11.4531 0.0930703 11.5219 0.0849772 11.5866C0.0728376 11.6959 0.060698 11.8052 0.052605 11.9063C0.0485584 11.963 0.0445119 12.0196 0.0364188 12.0763C0.0283257 12.0884 0.0242792 12.1006 0.0202327 12.1167L0 12.1774V13.8001L0.0202327 13.8568C0.0242792 13.8648 0.0283257 13.877 0.0323723 13.8851C0.0323723 14.2209 0.0890238 14.5447 0.137582 14.832C0.202327 15.2123 0.287304 15.6129 0.416793 16.1309C0.590794 16.8148 0.837633 17.4946 1.15731 18.1542C1.43247 18.7247 1.7481 19.271 2.09611 19.7768C2.47243 20.3272 2.91351 20.8694 3.40718 21.3793C3.75518 21.7394 4.15175 22.0955 4.62114 22.4597C5.27264 22.9695 5.99697 23.4187 6.76985 23.8031C7.36065 24.0945 7.98786 24.3332 8.63935 24.5194C8.9388 24.6043 9.24633 24.6731 9.54578 24.7379L9.56196 24.7419C9.87759 24.8148 10.2013 24.8593 10.5089 24.8997L10.5857 24.9119C11.0511 24.9766 11.5124 24.9969 11.9535 24.9969C12.1275 24.9969 12.2974 24.9928 12.4674 24.9888C12.7587 24.9807 13.042 24.9483 13.3212 24.9159L13.4547 24.8997C13.7501 24.8633 14.0536 24.831 14.3531 24.7662C14.8508 24.665 15.3323 24.5356 15.7896 24.3858C16.8093 24.0459 17.7845 23.5684 18.6869 22.9574C19.2089 22.6054 19.7188 22.2007 20.2044 21.7475C21.0015 21.007 21.7056 20.137 22.2924 19.1618C22.8629 18.2149 23.2919 17.2154 23.563 16.1876C23.652 15.8557 23.7329 15.4916 23.8179 15.0383C23.8867 14.6782 23.9191 14.314 23.9514 13.962L23.9595 13.877C24.0121 13.3671 24.004 12.8694 23.9879 12.3555ZM9.23824 9.74952C9.96257 9.02924 10.9297 8.63268 11.9575 8.63268C11.9656 8.63268 11.9697 8.63268 11.9777 8.63268C13.0096 8.63672 13.9727 9.04138 14.697 9.76571C15.4213 10.4941 15.8179 11.4653 15.8139 12.5012C15.8098 13.533 15.4092 14.4961 14.6808 15.2164C13.9565 15.9367 12.9853 16.3332 11.9494 16.3454C10.9135 16.3332 9.94638 15.9245 9.2261 15.2042C8.50582 14.4799 8.10521 13.5128 8.10926 12.485C8.10521 11.445 8.50582 10.4739 9.23824 9.74952ZM11.2008 18.2634C12.7385 18.1299 14.1669 18.4051 15.4497 19.0768C16.4573 19.6028 17.2989 20.2988 17.9545 21.1486C16.2468 22.4314 14.1062 23.1193 11.8887 23.095C9.71169 23.0707 7.63177 22.3707 6.00101 21.1162C6.96004 19.8375 8.91856 18.4617 11.2008 18.2634ZM17.6874 12.8006C17.7886 11.093 17.2221 9.62003 16.0081 8.41821C14.8346 7.2609 13.301 6.66202 11.6864 6.7389C10.0921 6.81578 8.5827 7.56844 7.54679 8.80668C6.49469 10.0611 6.03338 11.708 6.27618 13.3267C6.49874 14.7915 7.25544 16.0823 8.43703 17.0171C6.8953 17.6322 5.62468 18.5669 4.57663 19.8618C4.16793 19.4329 3.79565 18.9068 3.71472 18.7895C3.20486 18.0571 2.78806 17.2518 2.48053 16.3939C2.3308 15.9812 2.20536 15.5401 2.09206 15.0424C2.0435 14.832 2.01922 14.6135 1.9909 14.3828C1.97876 14.2897 1.96662 14.1967 1.95448 14.1036C1.88973 13.6221 1.86545 13.1769 1.88569 12.748C1.90592 12.315 1.93829 11.9185 1.9909 11.5381C2.07183 10.9513 2.20941 10.3605 2.40364 9.78594C2.78806 8.63672 3.35862 7.58463 4.10723 6.64988C4.82752 5.75155 5.69348 4.98675 6.68488 4.37168C7.36065 3.95084 8.12949 3.59879 8.97117 3.32767C9.41224 3.18604 9.89378 3.07274 10.3915 2.99181C10.6464 2.95134 10.9014 2.93111 11.1725 2.91088L11.3141 2.89874C11.5771 2.87851 11.8159 2.86232 12.0546 2.86232C12.4795 2.86637 12.9327 2.90279 13.4426 2.97158C14.0212 3.05251 14.608 3.19009 15.1786 3.37623C16.3237 3.7566 17.3799 4.32717 18.3146 5.07577C18.8407 5.49661 19.3303 5.97815 19.7673 6.5042C20.2934 7.13546 20.7344 7.81528 21.0824 8.53152C21.4426 9.27203 21.7056 10.0287 21.8715 10.7814C21.9484 11.1294 22.0051 11.4855 22.0415 11.8294C22.0941 12.3231 22.1265 12.7399 22.1103 13.1527C22.0941 13.5533 22.0617 13.9741 22.0051 14.403C21.8958 15.2488 21.6652 16.0783 21.2969 16.9483C21.0096 17.6322 20.6414 18.2796 20.2084 18.8704L20.2044 18.8745C19.8483 19.3641 19.5771 19.7161 19.4072 19.9387C18.3591 18.6155 17.04 17.6322 15.474 17.005C16.8417 15.9367 17.5862 14.5163 17.6874 12.8006Z" fill="#025EBC"/>
</svg>
