<svg width="21" height="16" viewBox="0 0 21 16" fill="none" xmlns="http://www.w3.org/2000/svg">
<path d="M20.7829 3.47639C20.7829 1.67056 19.4559 0.227264 17.8142 0.227264C15.5911 0.12466 13.327 0.0836182 11.015 0.0836182H10.6525H10.2899C7.97793 0.0836182 5.7138 0.12466 3.49071 0.227264C1.85589 0.227264 0.528876 1.68424 0.528876 3.49007C0.426272 4.91968 0.385225 6.34246 0.385225 7.77207C0.378385 9.20169 0.426275 10.6245 0.522039 12.0609C0.522039 13.8667 1.84904 15.3306 3.48386 15.3306C5.81639 15.4332 8.21049 15.4879 10.6388 15.4811C13.0739 15.4879 15.4612 15.44 17.8005 15.3306C19.4422 15.3306 20.7692 13.8667 20.7692 12.0609C20.865 10.6313 20.9129 9.20169 20.906 7.77207C20.9265 6.33562 20.8855 4.906 20.7829 3.47639ZM8.69615 11.6984V3.82524L14.5104 7.76523L8.69615 11.6984Z" fill="white"/>
</svg>
